<svg width="25" height="21" viewBox="0 0 25 21" fill="none" xmlns="http://www.w3.org/2000/svg">
<path d="M17.2609 20.8171H7.73909C2.24023 20.8171 1.21663 18.2581 0.954779 15.7706L0.0621069 6.23681C-0.0688184 4.98706 -0.104525 3.14221 1.13331 1.76154C2.20452 0.57131 3.97796 0 6.54886 0H18.4511C21.0339 0 22.8074 0.583212 23.8667 1.76154C25.1045 3.14221 25.0688 4.98707 24.9379 6.24871L24.0452 15.7586C23.7834 18.2581 22.7598 20.8171 17.2609 20.8171ZM6.54886 1.77344C4.53737 1.77344 3.1567 2.16622 2.45447 2.95177C1.87126 3.59449 1.68082 4.58239 1.83555 6.05827L2.72822 15.592C2.93056 17.4726 3.44236 19.0318 7.73909 19.0318H17.2609C21.5457 19.0318 22.0694 17.4726 22.2718 15.5801L23.1644 6.07017C23.3192 4.58239 23.1287 3.59449 22.5455 2.95177C21.8433 2.16622 20.4626 1.77344 18.4511 1.77344H6.54886Z" fill="white"/>
</svg>
