<svg width="11" height="11" viewBox="0 0 11 11" fill="none" xmlns="http://www.w3.org/2000/svg">
<path d="M10.8848 9.30841C10.8354 9.52103 10.7535 9.72473 10.6419 9.91234C10.602 9.98046 10.5581 10.0462 10.5106 10.1093C10.4573 10.18 10.4003 10.248 10.3399 10.3128L10.2152 10.4178C10.0577 10.5546 9.87782 10.6634 9.68349 10.7395C9.31453 10.8885 8.91946 10.9622 8.52158 10.9561C8.25292 10.9517 7.98508 10.9253 7.72071 10.8773C7.39649 10.8203 7.07796 10.7346 6.76887 10.6213C5.3049 10.0578 3.97538 9.19352 2.86616 8.08429C1.75693 6.97507 0.892658 5.64555 0.329141 4.18158C0.276626 4.03059 0.237235 3.88618 0.191284 3.72863C0.147536 3.56872 0.112472 3.40656 0.0862499 3.24286C0.0314416 2.98159 0.00286065 2.71551 0.000918778 2.44856C-0.0090657 2.05098 0.0624166 1.65557 0.210976 1.28665C0.292213 1.09896 0.400594 0.924234 0.532638 0.76806C0.566325 0.723472 0.603651 0.681754 0.644232 0.643335C0.703635 0.579616 0.769653 0.522402 0.841168 0.472659C0.899717 0.425208 0.961097 0.381365 1.02497 0.341371C1.21537 0.229213 1.421 0.145192 1.63546 0.0919207C1.90011 0.0299701 2.17109 -0.000872371 2.4429 1.87704e-05C2.64701 0.000479649 2.8509 0.0136336 3.05339 0.0394051C4.99862 0.424174 6.77633 1.40363 8.14084 2.84243C9.58319 4.19645 10.5695 5.96494 10.9636 7.90362C11.0312 8.37245 11.0045 8.85009 10.8848 9.30841Z" fill="url(#paint0_linear_0_33)"/>
<defs>
<linearGradient id="paint0_linear_0_33" x1="0.000918721" y1="5.46164" x2="10.9832" y2="5.46164" gradientUnits="userSpaceOnUse">
<stop stop-color="#E53282"/>
<stop offset="1" stop-color="#851D7B"/>
</linearGradient>
</defs>
</svg>
