<svg width="25" height="25" viewBox="0 0 25 25" fill="none" xmlns="http://www.w3.org/2000/svg">
<path d="M25 19.032C25.0015 19.4924 24.9613 19.9521 24.88 20.4052C24.8106 20.8373 24.692 21.26 24.5267 21.6652C24.2781 22.311 23.8991 22.8987 23.4134 23.3917C22.6857 24.0956 21.7762 24.5826 20.7869 24.7983C20.5803 24.8516 20.3736 24.8849 20.1603 24.9182C19.947 24.9516 19.747 24.9649 19.4937 24.9716C15.694 25.1916 10.621 22.8784 6.36801 18.6254C2.11499 14.3724 -0.211504 9.29274 0.0151455 5.47969C0.0245847 5.27215 0.0446068 5.06523 0.0751386 4.85973C0.102004 4.66004 0.139834 4.46198 0.188462 4.26644C0.392982 3.26009 0.883716 2.33419 1.6017 1.59997C2.07674 1.12543 2.64082 0.749376 3.26157 0.493388C3.68838 0.321137 4.13345 0.198129 4.58814 0.126749C5.06092 0.040156 5.54073 -0.00224637 6.02136 9.16439e-05H6.45467C7.02135 0.0252781 7.58522 0.0943686 8.14121 0.206743C7.99707 0.285325 7.85892 0.374451 7.72791 0.473391C7.53021 0.610006 7.34505 0.763934 7.17462 0.933356C7.02799 1.08316 6.88999 1.24118 6.76131 1.40665C5.76805 2.73989 5.50807 4.51976 5.90138 6.50627C5.95471 6.78181 6.02137 7.05513 6.10136 7.32622C6.18136 7.62619 6.28135 7.93284 6.39468 8.23281C7.31482 10.5852 8.72872 12.7129 10.541 14.4724C12.2978 16.2832 14.4235 17.6951 16.7739 18.612C17.0805 18.7254 17.3805 18.8254 17.6805 18.9054C17.9565 18.9877 18.2369 19.0545 18.5204 19.1053C19.0775 19.2203 19.6448 19.2784 20.2137 19.2787C20.9422 19.2878 21.6666 19.1682 22.3535 18.9254C22.8028 18.7684 23.2254 18.5436 23.6067 18.2587C23.7746 18.138 23.9308 18.0018 24.0734 17.8521C24.2349 17.6901 24.3842 17.5163 24.52 17.3321C24.6174 17.2 24.7064 17.062 24.7866 16.9188C24.8983 17.4794 24.9674 18.0477 24.9933 18.6187C24.9933 18.7254 25 18.892 25 19.032Z" fill="url(#paint0_linear_0_31)"/>
<defs>
<linearGradient id="paint0_linear_0_31" x1="0.035144" y1="12.4925" x2="25" y2="12.4925" gradientUnits="userSpaceOnUse">
<stop stop-color="#97BE11"/>
<stop offset="1" stop-color="#258F2D"/>
</linearGradient>
</defs>
</svg>
