<svg width="17" height="17" viewBox="0 0 17 17" fill="none" xmlns="http://www.w3.org/2000/svg">
<path d="M16.9762 13.0674C16.9762 13.2978 16.9762 13.5151 16.9762 13.7257C16.9312 14.1188 16.8338 14.504 16.6866 14.8712C16.5905 15.102 16.4714 15.3226 16.3311 15.5295C16.2232 15.6825 16.102 15.8256 15.969 15.9574L15.89 16.0364C14.6853 17.1621 12.6577 17.2674 10.4261 16.5301C10.0969 16.4182 9.76774 16.2931 9.42543 16.1483C9.0831 16.0035 8.65521 15.7928 8.26681 15.5821C5.39481 13.9831 3.02604 11.6143 1.427 8.74234C1.2163 8.36398 1.02514 7.97507 0.854263 7.57713C0.709435 7.24798 0.584362 6.91883 0.479033 6.59626C-0.258271 4.36459 -0.179277 2.33701 0.959594 1.12572L1.04518 1.04014C1.17862 0.908991 1.32164 0.787967 1.47307 0.678076C1.67772 0.532258 1.89864 0.41075 2.13138 0.316006C2.50048 0.170125 2.88831 0.0770446 3.28342 0.0395168C3.49079 0.012627 3.69971 -0.000567406 3.90882 1.86966e-05C4.27492 0.00237358 4.64028 0.0331883 5.0016 0.0921826C5.12668 0.0921826 5.25835 0.13168 5.39001 0.158012C5.36602 0.184907 5.34402 0.213509 5.32417 0.243593C5.20091 0.408871 5.0971 0.587792 5.01477 0.776821C4.87594 1.08573 4.77641 1.41084 4.71853 1.74453C4.68388 1.97553 4.66628 2.20876 4.66587 2.44234C4.65966 2.69971 4.67286 2.95718 4.70536 3.21256C4.74552 3.53066 4.80934 3.84532 4.89628 4.15394C5.45763 6.02922 6.49393 7.72767 7.90474 9.08466C9.46262 10.7606 11.5239 11.8837 13.7768 12.284C13.995 12.3144 14.2149 12.3298 14.4351 12.3301H14.5207C14.7414 12.3288 14.9616 12.309 15.179 12.2709C15.5139 12.2182 15.8397 12.1184 16.1467 11.9746C16.3409 11.8986 16.5228 11.7943 16.6866 11.6652C16.7202 11.6541 16.7499 11.6335 16.7721 11.606C16.7721 11.7442 16.8248 11.8759 16.8446 12.0075C16.9156 12.3569 16.9596 12.7113 16.9762 13.0674Z" fill="url(#paint0_linear_0_32)"/>
<defs>
<linearGradient id="paint0_linear_0_32" x1="-0.0278648" y1="8.49218" x2="16.9762" y2="8.49218" gradientUnits="userSpaceOnUse">
<stop stop-color="#F08504"/>
<stop offset="1" stop-color="#E5322D"/>
</linearGradient>
</defs>
</svg>
