<svg width="30" height="30" viewBox="0 0 30 30" fill="none" xmlns="http://www.w3.org/2000/svg">
<path d="M30 26.4465C29.7083 27.0209 29.328 27.5457 28.8731 28.0018C27.0146 29.8602 24.1215 30.3809 20.8264 29.7284L20.1674 29.59C19.9499 29.5373 19.739 29.4846 19.5084 29.4187C15.7124 28.3577 11.5211 25.86 7.83713 22.1695C4.1532 18.4789 1.65551 14.2942 0.587897 10.4982C0.521995 10.2807 0.46268 10.0698 0.409959 9.83918C0.357237 9.60853 0.311101 9.40423 0.27156 9.18016C-0.387461 5.88506 0.139762 2.99196 1.9982 1.13352C2.45773 0.677949 2.98449 0.295654 3.56008 0C3.26073 1.98275 3.39793 4.00696 3.96208 5.93119C4.16786 6.71466 4.42094 7.48493 4.71995 8.23776C4.79903 8.44206 4.8913 8.65295 4.97697 8.85724C5.06264 9.06154 5.1615 9.28561 5.26035 9.51626C6.84312 12.8404 9.00049 15.859 11.6331 18.4328C14.1941 21.0384 17.1918 23.1752 20.4903 24.7462L21.1494 25.0296L21.7688 25.2866C22.5238 25.5797 23.2937 25.8327 24.0754 26.0445C25.3899 26.406 26.7454 26.5965 28.1086 26.6113C28.7426 26.6097 29.3753 26.5546 30 26.4465Z" fill="url(#paint0_linear_0_29)"/>
<defs>
<linearGradient id="paint0_linear_0_29" x1="0.047494" y1="15.0125" x2="30" y2="15.0125" gradientUnits="userSpaceOnUse">
<stop stop-color="#E53282"/>
<stop offset="1" stop-color="#851D7B"/>
</linearGradient>
</defs>
</svg>
