<svg width="31" height="31" viewBox="0 0 31 31" fill="none" xmlns="http://www.w3.org/2000/svg">
<path d="M30.9837 23.3667C31.0511 24.3896 30.9093 25.4155 30.5671 26.3819C30.2248 27.3482 29.6892 28.2346 28.993 28.9871C28.5346 29.4508 28.0033 29.8364 27.4203 30.1284C27.1946 30.251 26.9594 30.3553 26.7169 30.4403C26.4895 30.5315 26.2569 30.6091 26.0202 30.6725C23.9624 31.1459 21.8166 31.0727 19.7959 30.4602C18.8217 30.1988 17.868 29.8661 16.9426 29.4648L16.279 29.1596C16.0402 29.0401 15.7946 28.9273 15.5558 28.8013C9.8531 25.7884 5.19112 21.1264 2.17825 15.4238C2.05217 15.1849 1.93274 14.9394 1.81993 14.7005C1.70712 14.4616 1.61423 14.2492 1.52133 14.0369C1.11898 13.1135 0.784104 12.1621 0.519335 11.1902C-0.094608 9.16725 -0.165549 7.01837 0.313631 4.95932C0.379988 4.72044 0.452988 4.48819 0.539252 4.26258C0.62562 4.0357 0.725326 3.81412 0.837854 3.59901C1.13652 3.00872 1.52614 2.46907 1.99245 1.99982C2.72522 1.3204 3.58639 0.794307 4.52537 0.452447C5.46434 0.110586 6.46219 -0.0401432 7.46024 0.00911658H7.5996C7.43998 0.133409 7.2892 0.268661 7.14837 0.413892C6.26721 1.31325 5.66761 2.45017 5.42309 3.68527C5.38328 3.87771 5.35011 4.07678 5.31693 4.27585C5.28375 4.47492 5.27047 4.67399 5.2572 4.88633C4.94532 9.0867 7.35407 14.581 11.8929 19.1198C16.1729 23.3998 21.3022 25.7555 25.3964 25.7555C25.642 25.7555 25.8808 25.7555 26.1197 25.7555C26.3586 25.7555 26.5378 25.7555 26.7435 25.6891C26.951 25.6624 27.157 25.6247 27.3606 25.5763C27.6783 25.5099 27.9909 25.4212 28.2962 25.3109C29.161 25.0043 29.9473 24.5103 30.5988 23.8643C30.7384 23.7075 30.867 23.5412 30.9837 23.3667Z" fill="url(#paint0_linear_0_30)"/>
<defs>
<linearGradient id="paint0_linear_0_30" x1="-0.0380595" y1="15.4768" x2="30.9903" y2="15.4768" gradientUnits="userSpaceOnUse">
<stop stop-color="#3AB4E6"/>
<stop offset="1" stop-color="#004996"/>
</linearGradient>
</defs>
</svg>
