<svg width="14" height="16" viewBox="0 0 14 16" fill="none" xmlns="http://www.w3.org/2000/svg">
<path d="M10.1353 8.86216C11.6591 8.86216 12.9123 8.83209 13.3433 8.73183C13.5037 8.70176 13.5639 8.64161 13.594 8.51129C13.6842 8.17043 13.7243 7.45865 13.7243 6.58647C13.7243 3.61905 11.9398 0 7.32832 0C2.61654 0 0 3.8396 0 8.17043C0 12.01 2.02506 16 7.69925 16C9.82456 16 11.198 15.6592 12.381 15.0978C12.5012 15.0376 12.5614 14.9374 12.5614 14.7569V12.1604C12.5614 12.01 12.4712 11.98 12.381 12.0401C11.198 12.5414 9.91479 12.792 8.51128 12.792C5.33333 12.792 3.88972 11.0376 3.7995 8.86216H10.1353ZM3.79949 6.17544C4.05012 4.65163 5.01252 2.99749 7.16791 2.99749C9.54385 2.99749 10.1654 4.99248 10.1654 5.89474C10.1654 5.92482 10.1654 6.05514 10.1654 6.14537C10.0351 6.17544 9.63407 6.17544 8.45112 6.17544H3.79949Z" fill="white"/>
</svg>
