<svg width="14" height="22" viewBox="0 0 14 22" fill="none" xmlns="http://www.w3.org/2000/svg">
<path d="M7.79696 22C9.62866 22 11.5779 21.6669 13.5565 20.8147C13.7133 20.756 13.7426 20.6874 13.7426 20.5405C13.6839 19.992 13.6153 19.1985 13.6153 18.5912V0.176314C13.6153 0.0587722 13.6153 0 13.4684 0H10.1478C10.0205 0 9.96171 0.0587722 9.96171 0.215495V6.45502C9.44255 6.39625 9.08013 6.36686 8.64915 6.36686C3.29118 6.36686 0 9.90292 0 14.3205C0 19.4434 3.37934 22 7.79696 22ZM9.9617 18.5912C9.41317 18.7676 8.80587 18.8361 8.18877 18.8361C5.75957 18.8361 3.77115 17.4648 3.77115 14.1344C3.77115 11.1861 5.81834 9.44255 8.5316 9.44255C9.08013 9.44255 9.5601 9.50132 9.9617 9.65804V18.5912Z" fill="white"/>
</svg>
