<svg width="18" height="20" viewBox="0 0 18 20" fill="none" xmlns="http://www.w3.org/2000/svg">
<path d="M12.3951 14.5533L14.1442 19.5686C14.2022 19.6943 14.2892 19.7522 14.4438 19.7522H17.8067C17.9903 19.7522 18.0193 19.6653 17.9903 19.4817L11.0422 0.183608C11.0132 0.0289912 10.9842 0 10.8296 0H6.65499C6.53904 0 6.47138 0.0869711 6.47138 0.212596C6.4134 1.22727 6.32644 1.5365 6.20081 1.83607L0.00649099 19.4527C-0.0225027 19.6653 0.045156 19.7522 0.219093 19.7522H3.22445C3.40806 19.7522 3.49503 19.6943 3.56267 19.5106L5.21513 14.5533H12.3951ZM6.17182 11.2773C7.08019 8.53289 8.27847 5.01537 8.76165 3.00536H8.79064C9.38978 5.112 10.8006 9.28664 11.4384 11.2773H6.17182Z" fill="white"/>
</svg>
