<svg width="83" height="26" viewBox="0 0 83 26" fill="none" xmlns="http://www.w3.org/2000/svg">
<path d="M0.000502243 23.2299L1.47238 19.7897C3.08396 20.9832 5.18599 21.6148 7.28853 21.6148C8.83026 21.6148 9.81117 21.0183 9.81117 20.1058C9.776 17.5781 0.526136 19.544 0.455783 13.1891C0.420607 9.95942 3.29401 7.46693 7.35888 7.46693C9.776 7.46693 12.1941 8.06392 13.9107 9.43328L12.5353 12.9469C10.9559 11.9313 9.00514 11.2233 7.14833 11.2233C5.88701 11.2233 5.04579 11.8197 5.04579 12.5926C5.08097 15.0851 14.4017 13.7157 14.5067 19.7897C14.5067 23.0897 11.7032 25.4068 7.70864 25.4068C4.76589 25.4068 2.06786 24.7048 0 23.2299H0.000502243ZM58.6083 18.5439C58.2367 19.2041 57.6963 19.7535 57.0424 20.1359C56.3885 20.5182 55.6446 20.7198 54.8871 20.7199C52.5263 20.7199 50.6127 18.8022 50.6127 16.4369C50.6127 14.0715 52.5263 12.1539 54.8871 12.1539C55.6446 12.154 56.3885 12.3555 57.0424 12.7379C57.6963 13.1203 58.2367 13.6697 58.6083 14.3298L62.7003 12.0584C61.1676 9.31921 58.2439 7.46693 54.8871 7.46693C49.9428 7.46693 45.9347 11.4826 45.9347 16.4369C45.9347 21.3907 49.9428 25.4068 54.8871 25.4068C58.2439 25.4068 61.1676 23.5546 62.7003 20.8153L58.6083 18.5439ZM17.162 25.0556H22.2777V0H17.1625L17.162 25.0556ZM65.2837 0V25.0556H70.3994V17.549L76.4612 25.0556H83L75.2914 16.1379L82.4392 7.81668H76.1808L70.3994 14.7349V0H65.2837ZM38.0382 7.81768V9.85439C37.1974 8.44985 35.1301 7.46693 32.9577 7.46693C28.4727 7.46693 24.934 11.4343 24.934 16.4193C24.934 21.4043 28.4727 25.4068 32.9577 25.4068C35.1301 25.4068 37.1974 24.4239 38.0382 23.0194V25.0556H43.1538V7.81768H38.0382ZM38.0382 18.5786C37.3025 19.8073 35.7607 20.7194 34.0441 20.7194C31.6828 20.7194 29.7692 18.8022 29.7692 16.4369C29.7692 14.0715 31.6828 12.1539 34.0441 12.1539C35.7607 12.1539 37.3025 13.1017 38.0382 14.365V18.5786Z" fill="white"/>
</svg>
