<svg width="14" height="22" viewBox="0 0 14 22" fill="none" xmlns="http://www.w3.org/2000/svg">
<path d="M0.215493 0C0.0881596 0 0 0.0587722 0 0.215495V21.0596C0 21.1478 0.0881596 21.3045 0.215493 21.3339C1.67497 21.7845 3.20302 22 4.78004 22C9.29561 22 13.6838 19.1985 13.6838 13.5565C13.6838 9.47193 10.8824 6.36686 6.49419 6.36686C5.48529 6.36686 4.54495 6.52359 3.72216 6.79785L3.68298 0.244879C3.68298 0.0293862 3.6242 0 3.40872 0H0.215493ZM9.93229 13.9287C9.93229 17.3081 7.62063 18.8949 5.12287 18.8949C4.60373 18.8949 4.14335 18.8655 3.72216 18.7382V9.84415C4.20212 9.65804 4.78004 9.50132 5.84771 9.50132C8.25732 9.50132 9.93229 11.0294 9.93229 13.9287Z" fill="white"/>
</svg>
