<svg width="14" height="14" viewBox="0 0 14 14" fill="none" xmlns="http://www.w3.org/2000/svg">
<path d="M13.9719 10.9997C13.9719 9.34269 12.6312 7.99943 10.9777 7.99943C9.32415 7.99943 7.98389 9.34269 7.98389 10.9997V13.9995H10.9777C11.7725 13.9987 12.5345 13.6822 13.096 13.1197C13.6575 12.5571 13.9726 11.7946 13.9719 10.9997ZM5.98805 10.9997V2.99979C5.98871 2.20495 5.67363 1.44239 5.11211 0.879832C4.55059 0.317277 3.78861 0.000797222 2.99377 0C1.34026 0 0 1.34326 0 2.99979V10.9992C0 12.6567 1.34026 14 2.99377 14C3.78861 13.9992 4.55059 13.6827 5.11211 13.1202C5.67363 12.5576 5.98871 11.7951 5.98805 11.0002" fill="white"/>
</svg>
